<svg width="44" height="44" viewBox="0 0 44 44" fill="none" xmlns="http://www.w3.org/2000/svg">
<path d="M29.9393 25.0167C29.1823 23.878 28.795 22.5335 28.8301 21.1667V21.0292C28.8279 19.5877 28.2902 18.1985 27.3212 17.1313C26.3523 16.0642 25.0213 15.3951 23.5868 15.2542V14.1817C23.5868 13.9993 23.5144 13.8245 23.3854 13.6955C23.2565 13.5666 23.0816 13.4942 22.8993 13.4942C22.717 13.4942 22.5421 13.5666 22.4132 13.6955C22.2842 13.8245 22.2118 13.9993 22.2118 14.1817V15.2908C21.6995 15.3503 21.1971 15.4767 20.7176 15.6667C19.666 16.1052 18.771 16.8506 18.1496 17.8056C17.5282 18.7607 17.2092 19.8809 17.2343 21.02C17.2455 22.4709 16.7856 23.8863 15.9235 25.0533L15.3093 25.8967C15.0182 26.2869 14.8415 26.7505 14.799 27.2356C14.7566 27.7206 14.85 28.2079 15.0689 28.6428C15.2878 29.0777 15.6235 29.443 16.0383 29.6979C16.4531 29.9528 16.9307 30.0871 17.4176 30.0858H20.4243V30.3883C20.5055 30.981 20.7986 31.5242 21.2494 31.9174C21.7002 32.3106 22.2782 32.5273 22.8764 32.5273C23.4746 32.5273 24.0525 32.3106 24.5033 31.9174C24.9541 31.5242 25.2472 30.981 25.3285 30.3883V30.0858H28.4176C28.8959 30.0792 29.3637 29.944 29.7718 29.6945C30.18 29.445 30.5135 29.0903 30.7375 28.6676C30.9615 28.245 31.0677 27.7698 31.045 27.292C31.0223 26.8141 30.8715 26.3512 30.6085 25.9517L29.9393 25.0167ZM23.981 30.2325C23.9293 30.4824 23.7931 30.707 23.5952 30.8681C23.3973 31.0293 23.1499 31.1174 22.8947 31.1174C22.6395 31.1174 22.3921 31.0293 22.1942 30.8681C21.9963 30.707 21.8601 30.4824 21.8085 30.2325V30.0858H23.981V30.2325ZM28.4176 28.7108H17.4176C17.1859 28.71 16.959 28.6451 16.7619 28.5233C16.5648 28.4015 16.4053 28.2276 16.3009 28.0207C16.1966 27.8139 16.1514 27.5822 16.1706 27.3513C16.1897 27.1204 16.2723 26.8993 16.4093 26.7125L17.0326 25.8692C18.0777 24.446 18.6312 22.7214 18.6093 20.9558C18.5973 20.1052 18.8395 19.2704 19.305 18.5584C19.7704 17.8464 20.4379 17.2895 21.2218 16.9592C21.805 16.7268 22.4273 16.6085 23.0551 16.6108C23.6372 16.606 24.2145 16.7165 24.7537 16.9359C25.2929 17.1553 25.7833 17.4793 26.1966 17.8892C26.6099 18.2991 26.938 18.7868 27.1619 19.3242C27.3857 19.8615 27.501 20.4379 27.501 21.02V21.1667C27.4766 22.7942 27.943 24.3913 28.8393 25.75L29.4626 26.6667C29.6069 26.8869 29.6804 27.146 29.6735 27.4092C29.6796 27.5779 29.6517 27.7461 29.5913 27.9038C29.531 28.0615 29.4395 28.2054 29.3222 28.327C29.205 28.4485 29.0645 28.5451 28.909 28.611C28.7536 28.677 28.5865 28.7109 28.4176 28.7108Z" fill="#5E6278"/>
</svg>
